<?xml version="1.0" standalone="no"?>
<!DOCTYPE svg PUBLIC "-//W3C//DTD SVG 20010904//EN"
 "http://www.w3.org/TR/2001/REC-SVG-20010904/DTD/svg10.dtd">
<svg version="1.0" xmlns="http://www.w3.org/2000/svg"
 width="320.000000pt" height="320.000000pt" viewBox="0 0 320.000000 320.000000"
 preserveAspectRatio="xMidYMid meet">
<metadata>
Created by potrace 1.14, written by Peter Selinger 2001-2017
</metadata>
<g transform="translate(0.000000,320.000000) scale(0.100000,-0.100000)"
fill="#000000" stroke="none">
<path d="M1365 3185 c-269 -41 -541 -158 -749 -323 -305 -241 -500 -558 -588
-954 -19 -89 -22 -131 -22 -303 0 -146 5 -223 17 -285 9 -47 19 -94 21 -106
23 -115 144 -387 223 -502 120 -174 285 -338 456 -452 162 -108 415 -208 595
-236 20 -3 56 -9 78 -13 46 -9 379 -6 432 3 115 19 169 32 262 63 298 99 543
265 747 508 159 188 293 474 339 721 18 97 27 423 14 497 -5 23 -10 60 -13 82
-3 22 -8 47 -11 55 -3 8 -7 26 -10 40 -18 109 -141 390 -223 508 -155 224
-359 409 -581 525 -143 75 -337 142 -487 168 -95 16 -402 19 -500 4z"/>
</g>
</svg>
